<svg xmlns="http://www.w3.org/2000/svg" width="20" height="20" viewBox="0 0 20 20">
    <g fill="none" fill-rule="evenodd">
        <g>
            <g>
                <g>
                    <path fill="#0D3750" d="M10 20C4.477 20 0 15.524 0 10 0 4.477 4.477 0 10 0c5.524 0 10 4.477 10 10 0 5.524-4.476 10-10 10z" transform="translate(-39 -76) translate(18 61) translate(21 15)"/>
                    <path fill="#FFF" d="M14.74 7.463H5.26c-.328 0-.593-.299-.593-.667 0-.368.265-.666.592-.666h9.482c.327 0 .592.298.592.666 0 .368-.265.667-.592.667M14.74 10.667H5.26c-.328 0-.593-.299-.593-.667 0-.368.265-.667.592-.667h9.482c.327 0 .592.299.592.667 0 .368-.265.667-.592.667M14.74 13.871H5.26c-.328 0-.593-.299-.593-.667 0-.368.265-.666.592-.666h9.482c.327 0 .592.298.592.666 0 .368-.265.667-.592.667" transform="translate(-39 -76) translate(18 61) translate(21 15)"/>
                </g>
            </g>
        </g>
    </g>
</svg>
