<svg xmlns="http://www.w3.org/2000/svg" width="22" height="22" viewBox="0 0 22 22">
    <g fill="none" fill-rule="evenodd">
        <g>
            <g>
                <path d="M0 0H22V22H0z" transform="translate(-335 -66) translate(335 66)"/>
                <path fill="#0D3750" fill-rule="nonzero" d="M11 22c1.31 0 2.381-.99 2.381-2.2H8.62C8.619 21.01 9.69 22 11 22zm7.739-6.6V9.35c0-3.355-2.56-6.215-5.953-6.93v-.77C12.786.715 12.012 0 11 0S9.214.715 9.214 1.65v.77c-3.393.715-5.953 3.575-5.953 6.93v6.05L.88 17.6v1.1h20.24v-1.1l-2.381-2.2z" transform="translate(-335 -66) translate(335 66)"/>
            </g>
        </g>
    </g>
</svg>
