<svg xmlns="http://www.w3.org/2000/svg" width="14" height="15" viewBox="0 0 14 15">
    <g fill="none" fill-rule="evenodd">
        <g fill="#A9A9A9">
            <g>
                <g>
                    <g>
                        <path d="M7 .467c3.608 0 6.533 2.925 6.533 6.533 0 3.608-2.925 6.533-6.533 6.533C3.392 13.533.466 10.608.466 7 .466 3.392 3.392.467 7 .467zm3.696 7.526H3.304c-.327 0-.576.313-.485.627.525 1.815 2.203 3.144 4.183 3.144 1.981 0 3.655-1.329 4.18-3.144.09-.314-.159-.627-.486-.627zM4.503 2.99c-.043-.086-.166-.086-.209 0l-.49.994c-.018.035-.05.059-.09.064l-1.096.16c-.096.013-.134.131-.065.199l.794.773c.028.027.04.066.034.104l-.188 1.093c-.015.095.084.168.17.123l.981-.516c.034-.018.074-.018.109 0l.982.516c.085.045.185-.028.169-.123l-.188-1.093c-.006-.038.006-.077.034-.104l.794-.773c.07-.068.03-.186-.065-.2l-1.097-.159c-.038-.005-.07-.03-.088-.064zm5.203 0c-.042-.086-.167-.086-.21 0l-.49.994c-.017.035-.05.059-.088.064l-1.097.16c-.096.013-.134.131-.065.199l.795.773c.027.027.04.066.033.104l-.187 1.093c-.017.095.083.168.169.123l.982-.516c.033-.018.074-.018.108 0l.981.516c.085.045.186-.028.17-.123l-.188-1.093c-.006-.038.006-.077.033-.104l.794-.773c.07-.068.032-.186-.064-.2l-1.098-.159c-.037-.005-.07-.03-.087-.064z" transform="translate(-63 -930) translate(15 581) translate(48 347.5) translate(0 2)"/>
                    </g>
                </g>
            </g>
        </g>
    </g>
</svg>
